<svg id="Group_10" data-name="Group 10" xmlns="http://www.w3.org/2000/svg" width="512" height="512" viewBox="0 0 512 512">
  <g id="Group_2" data-name="Group 2">
    <g id="Group_1" data-name="Group 1">
      <path id="Path_2" data-name="Path 2" d="M256,0C114.845,0,0,114.839,0,256S114.845,512,256,512,512,397.161,512,256,397.155,0,256,0Zm0,474.628C135.45,474.628,37.372,376.55,37.372,256S135.45,37.372,256,37.372s218.628,98.077,218.628,218.622S376.55,474.628,256,474.628Z" fill="#bbc5d5"/>
    </g>
  </g>
  <g id="Group_3" data-name="Group 3">
    <path id="Path_3" data-name="Path 3" d="M343.2,256H262.229V143.883a18.686,18.686,0,0,0-37.372,0v130.8a18.685,18.685,0,0,0,18.686,18.686H343.2a18.686,18.686,0,1,0,0-37.372Z" fill="#bbc5d5"/>
  </g>
</svg>
