<svg xmlns="http://www.w3.org/2000/svg" width="92" height="92" viewBox="0 0 92 92"><defs><style>.a{fill:#fff;}.b{fill:none;}.c{fill:#363848;}.d,.e{stroke:none;}.e{fill:#f3164d;}</style></defs><g transform="translate(-1294 -1720)"><g transform="translate(1294 1720)"><path class="a" d="M1340,1800h0a33.969,33.969,0,0,0,34-34h0a33.968,33.968,0,0,0-34-34h0a33.969,33.969,0,0,0-34,34h0A33.969,33.969,0,0,0,1340,1800Z" transform="translate(-1294 -1720)"/><g class="b" transform="translate(-1294 -1720)"><path class="d" d="M1340,1812h0a45.958,45.958,0,0,0,46-46h0a45.958,45.958,0,0,0-46-46h0a45.958,45.958,0,0,0-46,46h0A45.958,45.958,0,0,0,1340,1812Z"/><path class="e" d="M 1339.999877929688 1809.99951171875 C 1345.94970703125 1809.99951171875 1351.716796875 1808.837768554688 1357.140869140625 1806.546875 C 1362.38134765625 1804.333374023438 1367.086303710938 1801.163208007812 1371.125 1797.124389648438 C 1375.163696289062 1793.085815429688 1378.333740234375 1788.380859375 1380.547241210938 1783.140502929688 C 1382.838256835938 1777.71630859375 1383.999877929688 1771.949340820312 1383.999877929688 1765.999633789062 C 1383.999877929688 1760.049926757812 1382.838256835938 1754.282836914062 1380.547241210938 1748.858764648438 C 1378.333740234375 1743.618286132812 1375.163696289062 1738.913330078125 1371.125 1734.874633789062 C 1367.086303710938 1730.8359375 1362.38134765625 1727.665649414062 1357.140869140625 1725.452270507812 C 1351.716796875 1723.161254882812 1345.94970703125 1721.99951171875 1339.999877929688 1721.99951171875 C 1334.050048828125 1721.99951171875 1328.283081054688 1723.161254882812 1322.85888671875 1725.452270507812 C 1317.618530273438 1727.665649414062 1312.91357421875 1730.8359375 1308.874877929688 1734.874633789062 C 1304.836181640625 1738.913330078125 1301.666015625 1743.618286132812 1299.452514648438 1748.858764648438 C 1297.161499023438 1754.282836914062 1295.999877929688 1760.049926757812 1295.999877929688 1765.999633789062 C 1295.999877929688 1771.949340820312 1297.161499023438 1777.71630859375 1299.452514648438 1783.140502929688 C 1301.666015625 1788.380859375 1304.836181640625 1793.085815429688 1308.874755859375 1797.124389648438 C 1312.91357421875 1801.163208007812 1317.618530273438 1804.333374023438 1322.85888671875 1806.546875 C 1328.282958984375 1808.837768554688 1334.050048828125 1809.99951171875 1339.999877929688 1809.99951171875 M 1339.999877929688 1811.99951171875 C 1314.561889648438 1811.99951171875 1293.999877929688 1791.437255859375 1293.999877929688 1765.999633789062 C 1293.999877929688 1740.561889648438 1314.561889648438 1719.99951171875 1339.999877929688 1719.99951171875 C 1365.43798828125 1719.99951171875 1385.999877929688 1740.561889648438 1385.999877929688 1765.999633789062 C 1385.999877929688 1791.437255859375 1365.43798828125 1811.99951171875 1339.999877929688 1811.99951171875 Z"/></g><path class="c" d="M1333.959,1765.047h0v11.946a1.426,1.426,0,0,0,2.388.879l13.44-11.946a1.149,1.149,0,0,0,0-1.759l-13.44-11.946a1.427,1.427,0,0,0-2.388.879Z" transform="translate(-1292.916 -1718.998)"/></g></g></svg>